<svg id="_59110679__Layer_1" data-name="Layer 1" xmlns="http://www.w3.org/2000/svg" viewBox="0 0 300 175"><defs><style>._59110679__cls-1{fill:#676868}._59110679__cls-2{fill:#737373}._59110679__cls-4{fill:#8a8a8b}._59110679__cls-5{fill:#4f4f4f}</style></defs><path class="_59110679__cls-1" d="M59.952 69.789a24.256 24.256 0 0 1 .242 10.703 25.273 25.273 0 0 1-2.899 7.744 24.739 24.739 0 0 1-8.142 8.49 23.041 23.041 0 0 1-6.623 2.943c-1.062.279-2.125.573-3.204.765a26.028 26.028 0 0 1-3.272.371 5.212 5.212 0 0 1-1.771-.08 5.774 5.774 0 0 0-.768-.014c-.718-.102-1.44-.173-2.153-.311-.6-.117-1.212-.176-1.816-.272a3.425 3.425 0 0 1-.687-.164c-1.609-.617-3.209-1.254-4.819-1.864a16.243 16.243 0 0 1-2.808-1.591 25.117 25.117 0 0 1-6.02-5.394 23.667 23.667 0 0 1-2.986-4.59c-.21-.425-.459-.83-.655-1.26a9.487 9.487 0 0 0-.394-1.057 9.363 9.363 0 0 1-.75-2.333c-.117-.383-.266-.76-.348-1.15-.119-.568-.193-1.146-.28-1.72-.034-.219-.03-.444-.083-.657a13.724 13.724 0 0 1-.195-2.853 9.84 9.84 0 0 1-.041-1.253q.133-1.432.348-2.856a23.96 23.96 0 0 1 2.454-7.473 24.998 24.998 0 0 1 4.5-6.136 29.934 29.934 0 0 1 4.24-3.401 24.529 24.529 0 0 1 3.638-1.928 23.93 23.93 0 0 1 2.555-.89 1.113 1.113 0 0 0 .288-.083 7.906 7.906 0 0 1 3.318-1 23.624 23.624 0 0 1 10.497.455 25.989 25.989 0 0 1 6.512 2.654 25.578 25.578 0 0 1 5.53 4.248 24.985 24.985 0 0 1 5.274 7.86 19.478 19.478 0 0 1 1.318 4.097ZM121.127.657c.3 1.338.599 2.567.848 3.805.624 3.107 1.222 6.22 1.837 9.329q.55 2.779 1.12 5.553c.781 3.825 1.586 7.646 2.345 11.475.354 1.785.627 3.585.93 5.38.23 1.367.448 2.736.675 4.103.251 1.517.46 3.043.774 4.548.282 1.353.691 2.68 1.024 4.023a6.844 6.844 0 0 1 .16 3.961c-.169.496-.385.697-.896.605a1.31 1.31 0 0 0-.68.103 5.138 5.138 0 0 1-2.21.345 7.35 7.35 0 0 0-1.48.071c-1.567.132-3.134.264-4.698.416-.753.072-1.501.198-2.253.285-1.503.174-3.011.308-4.51.513-1.567.215-3.128.474-4.686.747-2.242.393-4.483.792-6.715 1.233-1.85.365-3.692.775-5.529 1.201-1.728.4-3.454.818-5.165 1.283a181.29 181.29 0 0 0-5.473 1.604c-.61.186-1.186.48-1.789.69-.386.135-.804.18-1.19.316a7.614 7.614 0 0 1-1.541.598c-.629.07-1.11.46-1.72.56a9.576 9.576 0 0 0-1.562.603 2.9 2.9 0 0 1-.739.113c-.271.021-.393-.125-.517-.379-.344-.704-.752-1.377-1.132-2.064a1.068 1.068 0 0 1-.093-.24c-.363-1.358-.715-2.719-1.088-4.074-.379-1.375-.78-2.743-1.165-4.116-.07-.25-.106-.51-.166-.763-.29-1.222-.585-2.442-.874-3.664q-.425-1.802-.84-3.606-.481-2.09-.953-4.18c-.376-1.67-.716-3.349-1.123-5.01-1.137-4.64-1.944-9.345-2.852-14.03-.276-1.424-.491-2.862-.702-4.298a51.927 51.927 0 0 1-.315-2.834.6.6 0 0 1 .181-.436 2.128 2.128 0 0 1 .88-.57 5.724 5.724 0 0 0 1.243-.668c1.4-.803 2.784-1.634 4.202-2.404 1.081-.587 2.202-1.102 3.309-1.641 1.042-.508 2.076-1.037 3.138-1.5 1.146-.5 2.327-.916 3.479-1.403 1.007-.426 2.08-.672 3.054-1.2a8.496 8.496 0 0 1 1.6-.503 2.788 2.788 0 0 0 .554-.18 11.518 11.518 0 0 1 2.516-.795c1.765-.511 3.558-.922 5.343-1.362.988-.243 1.972-.518 2.974-.676 2.028-.32 4.064-.59 6.102-.839a80.715 80.715 0 0 1 4.068-.372c1.032-.073 2.067-.082 3.1-.127 1.003-.044 2.008-.076 3.008-.157a5.304 5.304 0 0 1 1.521.054c.585.119 1.206.046 1.803.122.94.119 1.871.292 2.868.452ZM217.895 59.65a2.069 2.069 0 0 1-1.576-.116 13.012 13.012 0 0 0-1.5-.343 8.088 8.088 0 0 1-1.34-.606 11.526 11.526 0 0 0-1.326-.79c-1.19-.441-2.307-1.029-3.444-1.582-.607-.296-1.268-.481-1.9-.727a471.703 471.703 0 0 1-4.357-1.713c-.434-.174-.835-.434-1.275-.587-1.68-.585-3.372-1.134-5.053-1.717-.504-.175-.985-.418-1.48-.62a3.326 3.326 0 0 0-.477-.127 2.47 2.47 0 0 1-.737-.183 7.763 7.763 0 0 0-1.924-.624c-.89-.288-1.77-.608-2.667-.873-1.21-.359-2.435-.672-3.65-1.017q-2.323-.66-4.64-1.34c-1.672-.493-3.327-1.05-5.013-1.488-3.56-.926-7.134-1.8-10.706-2.679-1.834-.45-3.677-.864-5.516-1.295a.875.875 0 0 1-.204-.057c-1.45-.75-3.1-.715-4.624-1.176a12.217 12.217 0 0 1-1.742-.566 3.205 3.205 0 0 1-1.8-2.233 17.007 17.007 0 0 1-.232-2.174 4.117 4.117 0 0 0-.024-.492 12.229 12.229 0 0 1-.079-3.71c.096-1.16.207-2.326.286-3.49.09-1.352.238-2.7.374-4.048a65.47 65.47 0 0 1 2.092-12.348 13.456 13.456 0 0 1 3.317-5.78 6.584 6.584 0 0 1 2.03-1.393 10.085 10.085 0 0 1 2.546-.958 5.787 5.787 0 0 1 2.171-.043 4.726 4.726 0 0 0 .906.034c1.093.035 2.187.049 3.279.11 1.756.1 3.518.162 5.263.365 2.741.32 5.474.718 8.202 1.135 1.226.187 2.426.64 3.653.707.954.051 1.799.426 2.722.549a39.695 39.695 0 0 1 4.1.97c.975.237 1.959.441 2.926.707 1.173.323 2.33.7 3.498 1.042.789.231 1.59.417 2.374.664 4.92 1.555 9.78 3.283 14.54 5.283 1.764.742 3.517 1.51 5.288 2.235 1.683.689 3.405 1.284 5.065 2.022a26.034 26.034 0 0 1 2.951 1.672c.705.432 1.352.957 2.055 1.392a4.31 4.31 0 0 1 1.832 2.723 8.196 8.196 0 0 1 .144 2.452c-.021.773-.036 1.55-.134 2.316a55.586 55.586 0 0 1-1.185 7.133c-.58 2.21-1.114 4.437-1.826 6.605-.763 2.324-1.676 4.601-2.589 6.873-.595 1.484-1.287 2.93-1.972 4.376a8.845 8.845 0 0 1-2.726 3.345c-.43.322-.806.717-1.232 1.045a4.933 4.933 0 0 1-2.664 1.14ZM300 54.801c-.74 1.744-1.348 3.235-2 4.707-2.573 5.813-5.078 11.659-7.773 17.415-1.642 3.506-3.587 6.87-5.393 10.3-2.53 4.81-5.045 9.626-7.596 14.425-.867 1.632-1.267 1.782-3.065 1.118q-6.588-2.43-13.146-4.938-9.716-3.718-19.41-7.495c-2.637-1.028-5.284-2.049-7.852-3.236a24.34 24.34 0 0 1-3.94-2.507 1.63 1.63 0 0 1-.55-1.303 8.849 8.849 0 0 1 .787-2.628c1.911-3.828 3.89-7.622 5.845-11.428 3.542-6.9 7.106-13.789 10.613-20.707 1.438-2.835 2.714-5.751 4.137-8.594.692-1.38 1.553-2.676 2.393-4.104C268.964 41.554 284.61 47.49 300 54.8ZM197.892 171.79a2.945 2.945 0 0 1-2.971 1.781c-2.823.015-61.435.992-63.96.973.328-1.462.673-2.92.98-4.387.606-2.892 1.185-5.79 1.785-8.683.636-3.065 1.292-6.125 1.924-9.19.499-2.419.965-4.844 1.465-7.262.625-3.023 1.287-6.037 1.9-9.062.507-2.506.95-5.026 1.451-7.534.64-3.199 1.317-6.39 1.96-9.588.495-2.464.951-4.936 1.445-7.401.642-3.198 1.303-6.392 1.958-9.588.424-2.072.867-4.14 1.274-6.217.391-1.99.732-3.991 1.124-5.982.306-1.556.657-3.104.988-4.655l14.44.342c1.155.05 29.804 1.033 30.457 1.01.597-.02 23.284 1.084 24.886 1.39a3.961 3.961 0 0 1 2.376 1.375 3.043 3.043 0 0 1 .335.802c-.58 2.04-1.117 4.094-1.747 6.119-.959 3.083-2.02 6.132-3.083 9.181-1.513 4.339-2.708 8.79-3.993 13.206a615.04 615.04 0 0 0-2.96 10.598c-1.621 5.97-3.208 11.949-4.823 17.92-.727 2.688-1.511 5.36-2.224 8.052-.915 3.459-1.709 6.95-2.699 10.387-.627 2.176-1.517 4.277-2.288 6.413Z"/><path class="_59110679__cls-1" d="M164.197 82.74c-.18.654-.44 1.735-.632 2.594l.09.002c.23.01 1.552.057 3.512.125.302-.978.666-2.205.94-3.056a4.184 4.184 0 0 0 2.918-1.054 4.707 4.707 0 0 0 1.135-1.746c.683-1.776 1.4-3.54 2.102-5.31l.135-.944c1.186-.08 2.326-.24 3.462-.216 2.533.054 5.076.083 7.593.338a50.591 50.591 0 0 1 9.001 1.51 3.967 3.967 0 0 0 1.299.22c1.368-.084 2.113.811 2.783 1.758a1.237 1.237 0 0 1-.072 1.078 2.619 2.619 0 0 1-2.505.649c-1.024-.407-2.057-.794-3.086-1.19-.317.958-.653 1.911-.946 2.877-.36 1.185-.322 2.271.95 2.937l-.728 2.977c.019 0 .037.007.055.009 1.112.033 1.814.052 1.91.048.098-.003.806.025 1.913.074.233-.659.482-1.577.694-2.03 1.55.275 1.873.104 2.485-1.307.6-1.383 1.239-2.753 1.764-4.164a12.787 12.787 0 0 0 1.087-4.772 4.016 4.016 0 0 0-3.333-4.15c-1.958-.372-3.91-.777-5.879-1.086-2.492-.392-4.99-.777-7.5-1.023-2.155-.212-4.331-.2-6.495-.334a71.73 71.73 0 0 0-8.234.16 5.036 5.036 0 0 0-4.586 3.248 39.846 39.846 0 0 0-2.547 7.548 2.44 2.44 0 0 0 .407 2.4 1.678 1.678 0 0 1 .308 1.83ZM113.055 162.76c.172-1.665.483-3.317.705-4.98.17-1.27.286-2.547.448-3.818.133-1.052.288-2.101.454-3.149.2-1.262.45-2.517.625-3.783.187-1.358.3-2.725.466-4.086.134-1.096.29-2.19.45-3.282.213-1.44.464-2.874.655-4.317.186-1.402.306-2.813.476-4.218.128-1.052.278-2.102.436-3.15.032-.212.182-1.154.41-2.591.085-.53.17-1.06.238-1.592.2-1.58.316-3.17.496-4.752.124-1.097.29-2.19.445-3.284.224-1.572.479-3.14.676-4.715.192-1.536.317-3.08.49-4.619.124-1.097.284-2.19.419-3.286.181-1.473.86-7.087 1.3-10.812-2.207.005-7.47.044-12.422.083a3.404 3.404 0 0 0-3.273-2.496h-6.615a3.405 3.405 0 0 0-3.285 2.532c.318-.007.635-.016.953-.022.532-.01 1.065.05 1.598.078a10.126 10.126 0 0 0 .028 1.457c.22 1.395.526 2.777.739 4.174 1.075 7.071 2.11 14.149 3.2 21.218.93 6.02 1.928 12.03 2.873 18.048q2.126 13.542 4.212 27.091a9.984 9.984 0 0 1 .143 2.37c-.213 2.419-.51 4.83-.775 7.245.392 1.053 2.416 1.133 2.655.475.187-2.518.387-5.036.557-7.555.095-1.42.076-2.85.223-4.263Z"/><path class="_59110679__cls-2" d="M268.885 129.645c-.425.122-.79.304-1.214.425a19.933 19.933 0 0 0-6.857 3.034 8.768 8.768 0 0 0-3.277 4.127 9.337 9.337 0 0 0-.728 2.913c-.061.85-.182 1.699-.304 2.548a3.996 3.996 0 0 1-1.396 2.67 2.146 2.146 0 0 1-1.153-1.153 11.668 11.668 0 0 1-1.153-3.276 31.003 31.003 0 0 0-1.517-5.28 6.534 6.534 0 0 0-3.944-3.763 11.386 11.386 0 0 0-4.248-.728 9.787 9.787 0 0 0-1.335 0 1.615 1.615 0 0 1-1.82-1.092 8.931 8.931 0 0 1-.365-.85c.061-.486.425-.546.729-.729 2.427-.97 4.854-1.941 7.16-3.094a9.356 9.356 0 0 0 3.52-2.792 10.245 10.245 0 0 0 1.517-2.913 42.374 42.374 0 0 0 1.396-4.733 18.779 18.779 0 0 0 .121-2.61.932.932 0 0 1 .85-.97.646.646 0 0 1 .79.485 5.552 5.552 0 0 1 .06 1.032 5.872 5.872 0 0 0 .243 2.306 1.68 1.68 0 0 1 .06.546 17.179 17.179 0 0 0 .85 4.673 8.183 8.183 0 0 0 1.882 3.094 8.742 8.742 0 0 0 4.854 2.367c1.639.364 3.277.728 4.916 1.153.85.243.97.546.789 1.396a9.596 9.596 0 0 0-.426 1.214ZM49.357 146.115c-.24.069-.447.172-.687.24a11.277 11.277 0 0 0-3.879 1.716 4.96 4.96 0 0 0-1.854 2.335 5.281 5.281 0 0 0-.412 1.647c-.034.481-.103.962-.171 1.442a2.26 2.26 0 0 1-.79 1.51 1.214 1.214 0 0 1-.652-.652 6.594 6.594 0 0 1-.652-1.853 17.533 17.533 0 0 0-.858-2.986 3.696 3.696 0 0 0-2.231-2.129 6.444 6.444 0 0 0-2.403-.412 5.541 5.541 0 0 0-.756 0 .913.913 0 0 1-1.03-.618 5.069 5.069 0 0 1-.206-.48c.035-.275.24-.31.412-.412 1.373-.55 2.747-1.099 4.051-1.75a5.292 5.292 0 0 0 1.991-1.58 5.796 5.796 0 0 0 .858-1.648 23.978 23.978 0 0 0 .79-2.677 10.634 10.634 0 0 0 .069-1.476.527.527 0 0 1 .48-.55.366.366 0 0 1 .447.275 3.144 3.144 0 0 1 .034.584 3.324 3.324 0 0 0 .137 1.304.948.948 0 0 1 .035.309 9.72 9.72 0 0 0 .48 2.643 4.63 4.63 0 0 0 1.065 1.75 4.945 4.945 0 0 0 2.746 1.34c.927.206 1.853.412 2.78.652.48.137.55.309.447.79a5.427 5.427 0 0 0-.241.686ZM33.138 127.593c-.48.137-.892.343-1.372.48a22.537 22.537 0 0 0-7.753 3.43 9.914 9.914 0 0 0-3.705 4.665 10.558 10.558 0 0 0-.823 3.294c-.069.96-.206 1.92-.343 2.881a4.518 4.518 0 0 1-1.578 3.019 2.426 2.426 0 0 1-1.304-1.304 13.188 13.188 0 0 1-1.303-3.704 35.055 35.055 0 0 0-1.715-5.97 7.388 7.388 0 0 0-4.46-4.253 12.875 12.875 0 0 0-4.803-.824 11.054 11.054 0 0 0-1.51 0 1.825 1.825 0 0 1-2.058-1.234 10.107 10.107 0 0 1-.411-.96c.069-.55.48-.618.823-.824 2.745-1.097 5.489-2.195 8.096-3.499a10.576 10.576 0 0 0 3.98-3.156 11.58 11.58 0 0 0 1.715-3.293 47.902 47.902 0 0 0 1.578-5.351 21.225 21.225 0 0 0 .137-2.95 1.054 1.054 0 0 1 .96-1.098.73.73 0 0 1 .892.549 6.27 6.27 0 0 1 .069 1.166 6.64 6.64 0 0 0 .274 2.607 1.897 1.897 0 0 1 .069.618 19.424 19.424 0 0 0 .96 5.282 9.25 9.25 0 0 0 2.127 3.5 9.884 9.884 0 0 0 5.49 2.675c1.852.412 3.704.824 5.556 1.304.961.274 1.098.617.892 1.578a10.858 10.858 0 0 0-.48 1.372Z"/><path d="M186.947 11.97a15.29 15.29 0 0 1 2.018.237c3.157.788 6.38 1.301 9.48 2.329.668.222 1.373.328 2.05.526a15.598 15.598 0 0 1 2.067.707 2.5 2.5 0 0 1 .781.773 1.234 1.234 0 0 1 .388 1.275 31.065 31.065 0 0 1-.833 5.017q-.919 3.745-1.794 7.5a457.457 457.457 0 0 0-1.89 8.42 19.488 19.488 0 0 1-1.474 4.043 4.05 4.05 0 0 1-.497.773 1.572 1.572 0 0 1-1.854.46c-1.967-.728-3.925-1.483-5.897-2.197a141.197 141.197 0 0 0-4.22-1.437c-1.188-.389-2.388-.745-3.584-1.11a2.929 2.929 0 0 0-.688-.157 1.053 1.053 0 0 1-1.048-.954 3.957 3.957 0 0 1-.1-1.395c.322-1.81.67-3.616 1.082-5.407.57-2.483 1.164-4.962 1.83-7.42.817-3.007 1.72-5.99 2.584-8.985.176-.613.372-1.222.515-1.842.2-.87.206-.897 1.084-1.156Z" style="fill:#7c7c7c"/><path class="_59110679__cls-4" d="M32.495 86.804a4.152 4.152 0 0 1-2.562-2.983 25.448 25.448 0 0 1-.634-6.866 13.629 13.629 0 0 0-.535-3.196 2.201 2.201 0 0 0-.441-.781c-.296-.395-1.12-.27-1.465.214a1.516 1.516 0 0 0-.21.431c-.406 1.325-.836 2.644-1.19 3.983-.206.773-.28 1.58-.424 2.37-.118.652-.258 1.3-.38 1.951q-.47 2.516-.933 5.034c-.014.078.003.173-.034.236-.086.144-.176.352-.303.385a.62.62 0 0 1-.451-.187 1.05 1.05 0 0 1-.31-.742 34.216 34.216 0 0 1 .623-9.397 27.629 27.629 0 0 1 1.412-5.23 22.822 22.822 0 0 1 1.102-2.338 2.832 2.832 0 0 1 1.9-1.37 1.444 1.444 0 0 1 1.617.514c.31.416.567.87.874 1.348.066-.146.133-.28.187-.418.11-.28.223-.56.317-.846a3.716 3.716 0 0 1 2.373-2.307 2.956 2.956 0 0 0 .391-.152 1.69 1.69 0 0 1 1.222-.108 3.269 3.269 0 0 1 2.411 2.262 35.866 35.866 0 0 1 1.465 5.516 29.296 29.296 0 0 0 .847 3.008 2.854 2.854 0 0 0 1.234 1.539 1.833 1.833 0 0 0 .253-.328 24.704 24.704 0 0 0 1.329-4.612 7.658 7.658 0 0 1 1.526-3.749 3.068 3.068 0 0 1 2.509-1.058c.511.03.72.187.812.703a5.027 5.027 0 0 1 .088 1.19 13.919 13.919 0 0 1-.734 3.648c-.31.905-.46 1.865-.742 2.781-.358 1.166-.73 2.333-1.192 3.46a6.086 6.086 0 0 1-1.041 1.607 2.47 2.47 0 0 1-3.055.61 8.35 8.35 0 0 1-4.046-4.35 18.598 18.598 0 0 1-.975-3.786c-.194-.86-.311-1.736-.472-2.604-.055-.296-.14-.587-.207-.881a.652.652 0 0 0-1.266-.152 4.175 4.175 0 0 0-.19.441 12.898 12.898 0 0 0-.672 3.846 43.143 43.143 0 0 0-.017 3.964 20.793 20.793 0 0 0 .397 2.249 22.025 22.025 0 0 1 .34 2.616 7.31 7.31 0 0 1-.264 1.887c-.056.239-.315.43-.483.648ZM42.577 65.683a2.586 2.586 0 0 1-1.688-.297 3.675 3.675 0 0 1-1.93-2.21 3.182 3.182 0 0 1 .054-2.332 1.884 1.884 0 0 1 .114-.213 3.438 3.438 0 0 1 4.235-1.035 6.966 6.966 0 0 1 1.377 1.237 1.535 1.535 0 0 1 .354 1.061 3.384 3.384 0 0 1-.925 2.587c-.188.177-.321.411-.5.6a2.024 2.024 0 0 1-1.091.602ZM118.968 41.64c-.563.532-1.047 1.025-1.567 1.475a10.525 10.525 0 0 1-3.79 2.194 9 9 0 0 1-6.852-.662 10.29 10.29 0 0 1-2.949-1.978c-.421-.433-.784-.923-1.201-1.36a12.79 12.79 0 0 1-2.902-5.218 9.255 9.255 0 0 1-.27-4.18 7.903 7.903 0 0 1 4.157-5.863 18.385 18.385 0 0 1 2.79-1.207 5.436 5.436 0 0 1 3.01.024 13.896 13.896 0 0 1 4.44 1.954c.718.464 1.351 1.059 2.09 1.649a2.06 2.06 0 0 0-.044-.346 20.375 20.375 0 0 0-2.218-5.362 6.127 6.127 0 0 0-3.164-2.355 7.401 7.401 0 0 0-3.587-.25 9.277 9.277 0 0 0-6.01 3.762c-.407.527-.738 1.112-1.147 1.735a.552.552 0 0 1-.574-.282c-.149-.267-.34-.516-.182-.844.225-.468.418-.955.685-1.398a14.286 14.286 0 0 1 4.781-4.961 12.152 12.152 0 0 1 3.146-1.337 5.883 5.883 0 0 1 3.366-.013 7.369 7.369 0 0 1 3.24 2.199 17.391 17.391 0 0 1 1.941 2.44 22.538 22.538 0 0 1 2.384 4.67c.56 1.609 1.082 3.232 1.61 4.852.167.513.306 1.036.441 1.559.412 1.592.843 3.179 1.21 4.78a9.922 9.922 0 0 1 .326 2.436 15.514 15.514 0 0 1-.435 2.538 1.154 1.154 0 0 1-.223.466c-.184.235-.464.42-.736.266-.479-.272-1.07-.395-1.366-.945a2.72 2.72 0 0 0-.4-.438Zm-1.403-5.138c-.183-1.102-.365-2.123-.518-3.147a1.773 1.773 0 0 0-.61-1.17 4.834 4.834 0 0 1-.53-.653 4.64 4.64 0 0 0-.676-.779 11.962 11.962 0 0 0-6.162-2.54 4.743 4.743 0 0 0-3.08.768 7.845 7.845 0 0 0-2.581 2.778 2.975 2.975 0 0 0-.344 2.062 9.121 9.121 0 0 0 1.386 3.54c1.657 2.546 3.932 3.913 7.055 3.537a3.073 3.073 0 0 0 1.292-.377 20.776 20.776 0 0 0 1.972-1.564c.93-.788 1.472-2.001 2.796-2.455ZM82.661 37.18c.078.89.122 1.71.228 2.52.158 1.2.375 2.393.54 3.594.14 1.004.209 2.019.37 3.02.12.743.327 1.473.515 2.204a3.614 3.614 0 0 1 .024 1.916c-.131.47-.186.96-.283 1.438a2.513 2.513 0 0 1-.155.562c-.252.54-.62.597-1.161.387a5.488 5.488 0 0 1-2.064-1.91.694.694 0 0 1-.16-.346 92.918 92.918 0 0 1-.256-2.51 33.59 33.59 0 0 1-.247-3.475c.018-.954-.086-1.893-.111-2.839-.045-1.683-.03-3.372-.178-5.046-.157-1.786-.123-3.575-.244-5.358-.092-1.35-.074-2.703-.135-4.053-.03-.667-.176-1.33-.215-1.997-.038-.642-.003-1.289-.006-1.934a38.816 38.816 0 0 1 .251-5.568 15.15 15.15 0 0 1 .364-1.78 1.826 1.826 0 0 1 1.166-1.376c.506-.18.977-.463 1.487-.622a2.165 2.165 0 0 1 .95-.025 4.308 4.308 0 0 1 3.086 2.63c.919 1.738 1.774 3.51 2.62 5.285 1.255 2.635 2.47 5.289 3.723 7.926a9.292 9.292 0 0 0 .708 1.07.95.95 0 0 1 .185.338 8.941 8.941 0 0 0 1.11 2.545c.577 1.187 1.222 2.34 1.82 3.517.281.556.501 1.144.783 1.7.536 1.055 1.11 2.09 1.64 3.148a2.83 2.83 0 0 1 .262 1.678A17.586 17.586 0 0 1 99 45.654a1.717 1.717 0 0 1-.297.636.545.545 0 0 1-.736.151 5.338 5.338 0 0 1-2.61-2.678c-.695-1.292-1.23-2.669-1.846-4.004-.523-1.133-1.059-2.26-1.593-3.388-.24-.505-.302-.543-.848-.457-1.454.23-2.904.484-4.36.698-.982.144-1.972.23-2.957.356-.34.044-.674.13-1.092.211Zm.38-19.336a5.157 5.157 0 0 0-.448.722 4.305 4.305 0 0 0-.232.877 32.854 32.854 0 0 0-.551 7.287c.061 1.14.16 2.28.24 3.42.067.946.123 1.892.201 2.836.055.66.139 1.318.217 2.042.571-.24 1.057-.47 1.56-.653a48.51 48.51 0 0 0 4.85-2.308c.563-.279.646-.633.383-1.208q-.848-1.855-1.692-3.714c-1.163-2.553-2.32-5.11-3.496-7.658a5.476 5.476 0 0 0-1.031-1.643ZM217.16 52.293a2.678 2.678 0 0 1-.472-.069 31.746 31.746 0 0 1-4.554-1.539c-.832-.375-1.749-.562-2.619-.859-1.272-.434-2.535-.899-3.807-1.335-.601-.206-1.241-.316-1.817-.574a12.307 12.307 0 0 1-2.096-1.16 3.107 3.107 0 0 1-1.003-1.812 5.804 5.804 0 0 1 .127-3.214c.659-2.318 1.368-4.622 2.024-6.941.687-2.43 1.36-4.864 1.998-7.307.729-2.783 1.467-5.561 2.456-8.265.364-.992.385-1.058 1.404-.928a38.405 38.405 0 0 1 4.1.74c1.283.309 2.539.74 3.792 1.16 1.184.397 2.38.784 3.517 1.295 1.85.83 3.66 1.749 5.475 2.654a2.778 2.778 0 0 1 .75.633.595.595 0 0 1 .08.452c-.228 1.204-.436 2.414-.724 3.604-.566 2.34-1.128 4.683-1.787 6.997a173.023 173.023 0 0 1-2.318 7.44c-.524 1.564-1.17 3.089-1.775 4.626-.182.46-.417.9-.608 1.356a25.45 25.45 0 0 0-.638 1.64 1.909 1.909 0 0 1-1.505 1.406ZM164.025 8c.257.012.514.013.77.038 1.896.19 3.797.352 5.688.588q2.49.31 4.962.76c1.947.353 3.883.767 5.82 1.168a3.733 3.733 0 0 1 .796.288c.78.36.823.525.774 1.375a21.829 21.829 0 0 1-.725 3.448q-.809 3.66-1.635 7.315-.476 2.104-.981 4.202-.836 3.47-1.69 6.935c-.204.825-.427 1.645-.645 2.467a.818.818 0 0 1-.411.621c-.141.07-.219.286-.305.447a.54.54 0 0 1-.69.308c-2.14-.467-4.288-.903-6.431-1.357-.3-.064-.594-.16-.888-.248a76.91 76.91 0 0 0-8.942-2.098c-.787-.138-1.57-.304-2.36-.419-.399-.058-.6-.239-.607-.632a2.976 2.976 0 0 1 .02-.697 160.47 160.47 0 0 1 2.523-9.66c1.205-4.126 2.324-8.278 3.49-12.416.185-.655.418-1.297.645-1.94.134-.38.494-.394.822-.493ZM244.872 63.797c5.317 2.028 10.483 3.794 15.425 6.117-1.14 2.377-2.21 4.537-3.217 6.727q-1.952 4.247-3.817 8.534c-.66 1.508-.669 1.573-2.123 1.03q-6.811-2.541-13.602-5.139c-1.01-.386-1.124-.723-.713-1.738.151-.374.35-.73.535-1.09q3.299-6.405 6.603-12.807c.26-.503.55-.991.909-1.634ZM268.748 92.28c-3.045.296-7.268-3.043-7.579-7.085a9.886 9.886 0 0 1 2.925-8.435 6.72 6.72 0 0 1 6.97-1.84 22.83 22.83 0 0 1 3.875 1.396 7.088 7.088 0 0 1 3.668 5.195c.735 3.847-.587 6.8-3.932 8.975a10.008 10.008 0 0 1-5.928 1.795ZM263.656 49.125c.917-.287 1.577-.468 2.218-.699 2.488-.897 4.353.427 6.189 1.76.927.674.865 3.768-.032 4.707-2.172 2.275-4.41 4.389-7.574 5.274-2.27.635-4.47 1.522-6.726 2.214-1.231.377-1.394.282-1.775-.908-1.002-3.127-2.021-6.252-2.877-9.42a5.893 5.893 0 0 1 .915-5.285c2.414-3.15 4.865-3.11 7.687-.922a4.402 4.402 0 0 1 1.975 3.279ZM286.16 71.128c-.126 1.043.062 2.107-.961 2.86a2.201 2.201 0 0 1-2.385.416c-2.4-.988-4.852-1.844-7.27-2.788a227.96 227.96 0 0 1-5.445-2.229 7.75 7.75 0 0 1-1.356-.735c-1.455-.992-1.495-2.29-.044-3.316 1.835-1.297 3.719-2.528 5.595-3.768a728.39 728.39 0 0 1 7.668-5.02c1.426-.917 2.293-.585 2.861 1.05a5.34 5.34 0 0 1 .303 1.341c.222 3.039.4 6.081.632 9.12.077 1.027.265 2.046.403 3.069Z"/><path class="_59110679__cls-5" d="M192.872 77.498a91.818 91.818 0 0 0-18.61-3.203l.135-.945c1.186-.08 2.326-.24 3.462-.215 2.533.053 5.076.082 7.593.337a50.6 50.6 0 0 1 9.001 1.51 3.966 3.966 0 0 0 1.299.22c1.368-.083 2.113.812 2.783 1.758a1.237 1.237 0 0 1-.072 1.079 2.619 2.619 0 0 1-2.504.648c-1.025-.407-2.058-.794-3.087-1.19ZM109.62 174.103c-2.039.026-4.078.041-6.116.08a514.5 514.5 0 0 0-7.698.187 2.144 2.144 0 0 1-2.244-1.487 22.107 22.107 0 0 1-1.29-5.282c-.846-4.794-1.618-9.601-2.42-14.403q-1.26-7.53-2.523-15.057c-.733-4.365-1.486-8.727-2.206-13.094-1.116-6.768-2.207-13.54-3.316-20.309-.458-2.795-.935-5.586-1.4-8.38a2.845 2.845 0 0 1 .896-2.9 3.257 3.257 0 0 1 1.436-.575 16.032 16.032 0 0 1 2.246-.174c1.505-.05 3.011-.071 4.517-.105 2.7-.062 5.4-.13 8.1-.181.532-.01 1.065.05 1.598.077a10.126 10.126 0 0 0 .028 1.457c.22 1.396.527 2.778.739 4.174 1.075 7.072 2.11 14.15 3.201 21.218.929 6.02 1.927 12.03 2.872 18.048q2.126 13.543 4.212 27.092a9.984 9.984 0 0 1 .143 2.37c-.213 2.419-.51 4.83-.775 7.244ZM149.215 84.994c-.331 1.551-.682 3.099-.988 4.655-.392 1.99-.733 3.992-1.124 5.983-.407 2.075-.85 4.144-1.274 6.216-.655 3.196-1.316 6.39-1.958 9.588-.494 2.465-.95 4.937-1.445 7.401-.643 3.198-1.32 6.389-1.96 9.588-.5 2.508-.944 5.028-1.452 7.534-.612 3.025-1.274 6.04-1.899 9.061-.5 2.419-.966 4.844-1.465 7.263-.632 3.065-1.288 6.126-1.924 9.19-.6 2.893-1.179 5.79-1.784 8.683-.308 1.466-.653 2.925-.982 4.387a14.884 14.884 0 0 1-1.697.163c-4.073-.06-8.145-.16-12.219-.21-1.589-.02-3.18.052-4.77.083.188-2.519.388-5.036.558-7.555.095-1.42.076-2.85.222-4.263.173-1.667.483-3.318.706-4.98.17-1.27.286-2.548.447-3.82.134-1.051.289-2.1.454-3.148.2-1.262.45-2.518.625-3.784.187-1.357.3-2.724.467-4.085.133-1.096.29-2.19.45-3.283.213-1.44.464-2.874.655-4.316.186-1.402.306-2.813.476-4.218.127-1.053.278-2.102.436-3.15.21-1.395.47-2.784.647-4.183.2-1.58.317-3.17.497-4.752.124-1.097.29-2.19.445-3.284.223-1.572.479-3.14.676-4.715.192-1.536.317-3.08.49-4.619.124-1.097.284-2.19.419-3.287.264-2.147 1.587-13.107 1.683-14.162a10.179 10.179 0 0 1 .493-2.45c.604-1.713 1.483-2.27 3.335-2.208 2.975.1 5.948.257 8.923.342 4.612.133 9.225.225 13.837.335ZM197.892 171.79c.771-2.135 1.66-4.237 2.288-6.414.99-3.436 1.784-6.928 2.7-10.386.711-2.692 1.496-5.364 2.223-8.052 1.615-5.972 3.201-11.95 4.823-17.92.961-3.54 1.936-7.077 2.96-10.599 1.284-4.416 2.48-8.867 3.993-13.205 1.063-3.05 2.124-6.098 3.083-9.182.63-2.024 1.168-4.078 1.747-6.119 1.157 1.246 2.581 5.028 2.194 6.288-1.08 3.512-23.762 74.475-24.06 74.967-.599.987-.79 1.034-1.951.622Z"/></svg>